<svg t="1704113340830" class="icon" viewBox="0 0 1024 1024" version="1.1" xmlns="http://www.w3.org/2000/svg" p-id="13915" width="32" height="32"><path d="M674.613333 517.205333a32 32 0 0 1 32-32c83.605333 0 151.392 67.786667 151.392 151.392 0 83.616-67.786667 151.392-151.392 151.392a32 32 0 0 1 0-64 87.392 87.392 0 1 0 0-174.784 32 32 0 0 1-32-32z" fill="#E88C20" p-id="13916"></path><path d="M804.672 659.2a10.666667 10.666667 0 0 1 6.794667 13.472c-19.189333 58.293333-72.885333 78.986667-109.376 83.904a10.666667 10.666667 0 1 1-2.848-21.152c32.842667-4.416 76.48-22.4 91.957333-69.429333a10.666667 10.666667 0 0 1 13.472-6.794667z" fill="#B26A16" p-id="13917"></path><path d="M735.552 511.893333a10.666667 10.666667 0 0 1 13.653333-6.410666c18.474667 6.656 59.669333 30.229333 81.386667 73.386666a10.666667 10.666667 0 0 1-19.061333 9.589334c-18.549333-36.853333-54.506667-57.482667-69.557334-62.912a10.666667 10.666667 0 0 1-6.421333-13.653334z" fill="#FDB055" p-id="13918"></path><path d="M197.994667 411.978667s50.101333 60.16 250.517333 60.16c200.405333 0 250.506667-60.16 250.506667-60.16v381.824c0 44.469333-18.069333 87.658667-58.88 105.290666-39.936 17.258667-102.005333 34.24-191.626667 34.24s-151.68-16.981333-191.626667-34.24c-40.821333-17.642667-58.88-60.821333-58.88-105.290666V411.978667z" fill="#EF2F15" p-id="13919"></path><path d="M190.741333 391.914667a21.333333 21.333333 0 0 1 23.370667 6.08v0.021333l0.992 0.96c1.098667 1.024 3.136 2.794667 6.325333 5.088 6.346667 4.586667 17.344 11.285333 34.592 18.186667 34.538667 13.824 94.378667 28.554667 192.490667 28.554666 98.112 0 157.941333-14.730667 192.48-28.554666 17.258667-6.901333 28.245333-13.6 34.602667-18.176a65.173333 65.173333 0 0 0 6.325333-5.098667 23.146667 23.146667 0 0 0 0.981333-0.96v-0.010667a21.333333 21.333333 0 0 1 37.450667 13.973334v381.813333c0 49.205333-20.16 102.592-71.754667 124.885333C605.866667 937.141333 540.906667 954.666667 448.512 954.666667c-92.394667 0-157.354667-17.525333-200.085333-35.989334-51.605333-22.293333-71.765333-75.68-71.765334-124.885333V411.978667a21.333333 21.333333 0 0 1 14.08-20.053334z m486.944 36.213333c15.541333-9.184 21.333333-16.149333 21.333334-16.149333v381.813333c0 44.48-18.069333 87.658667-58.88 105.301333-39.936 17.258667-102.005333 34.24-191.626667 34.24s-151.68-16.981333-191.626667-34.24c-40.821333-17.642667-58.88-60.821333-58.88-105.301333V411.978667s5.792 6.965333 21.333334 16.149333c30.133333 17.813333 96.928 44.010667 229.173333 44.010667s199.04-26.197333 229.173333-44.010667z" fill="#8E1707" p-id="13920"></path><path d="M699.018667 798.165333v-371.84s-19.274667 28.917333-85.205334 45.706667l0.458667 436.032a244.981333 244.981333 0 0 0 38.208-16.128c33.6-17.781333 46.538667-55.765333 46.538667-93.770667z" fill="#CF2109" p-id="13921"></path><path d="M636.48 869.312a17.664 17.664 0 1 1-35.328 0 17.664 17.664 0 0 1 35.328 0zM671.061333 846.506667a13.248 13.248 0 1 1-26.496 0 13.248 13.248 0 0 1 26.496 0zM617.344 820.746667a13.248 13.248 0 1 1-26.496 0 13.248 13.248 0 0 1 26.496 0zM670.325333 758.933333a13.248 13.248 0 1 1-26.496 0 13.248 13.248 0 0 1 26.496 0zM635.008 772.181333a8.832 8.832 0 1 1-17.664 0 8.832 8.832 0 0 1 17.664 0zM670.325333 719.2a8.832 8.832 0 1 1-17.664 0 8.832 8.832 0 0 1 17.664 0zM660.757333 802.346667a13.248 13.248 0 1 1-26.496 0 13.248 13.248 0 0 1 26.496 0zM643.84 723.616a13.248 13.248 0 1 1-26.496 0 13.248 13.248 0 0 1 26.485333 0zM661.493333 683.882667a8.832 8.832 0 1 1-17.664 0 8.832 8.832 0 0 1 17.664 0zM582.752 877.408a8.832 8.832 0 1 1-17.653333 0 8.832 8.832 0 0 1 17.653333 0z" fill="#9F1603" p-id="13922"></path><path d="M256.437333 514.282667a32 32 0 0 1 32 32v153.066666a32 32 0 1 1-64 0v-153.066666a32 32 0 0 1 32-32z" fill="#FF6853" p-id="13923"></path><path d="M246.88 530.282667a16 16 0 0 1 16 16v38.261333a16 16 0 1 1-32 0v-38.261333a16 16 0 0 1 16-16z" fill="#FFFFFF" p-id="13924"></path><path d="M699.018667 407.2c0 42.261333-112.149333 76.522667-250.506667 76.522667s-250.517333-34.261333-250.517333-76.522667c0-42.272 112.16-76.533333 250.517333-76.533333 138.346667 0 250.506667 34.261333 250.506667 76.533333z" fill="#F9CC2D" p-id="13925"></path><path d="M631.882667 481.706667c-47.861333 14.624-112.693333 23.36-183.370667 23.36-70.688 0-135.509333-8.736-183.370667-23.36-23.808-7.264-44.618667-16.352-59.946666-27.424-14.848-10.72-28.533333-26.346667-28.533334-47.082667 0-20.736 13.685333-36.373333 28.533334-47.082667 15.328-11.082667 36.149333-20.16 59.946666-27.434666C313.002667 318.058667 377.813333 309.333333 448.501333 309.333333c70.688 0 135.52 8.725333 183.381334 23.349334 23.797333 7.264 44.608 16.352 59.946666 27.434666 14.837333 10.72 28.522667 26.346667 28.522667 47.082667 0 20.725333-13.685333 36.362667-28.522667 47.082667-15.338667 11.072-36.149333 20.16-59.946666 27.434666z m-183.370667 2.026666c138.346667 0 250.506667-34.272 250.506667-76.533333C699.018667 364.928 586.88 330.666667 448.512 330.666667s-250.517333 34.261333-250.517333 76.533333c0 42.261333 112.16 76.522667 250.517333 76.522667z" fill="#8E1707" p-id="13926"></path><path d="M583.445333 363.786667a10.666667 10.666667 0 0 1 12.106667-9.002667c10.538667 1.546667 25.44 6.997333 38.933333 12.618667a564.416 564.416 0 0 1 35.669334 16.416 10.666667 10.666667 0 0 1-9.642667 19.029333 542.869333 542.869333 0 0 0-34.24-15.754667c-13.578667-5.653333-26.24-10.090667-33.824-11.2a10.666667 10.666667 0 0 1-9.002667-12.117333z" fill="#FFF6A6" p-id="13927"></path><path d="M286.528 348.810667c-54.154667 14.037333-88.533333 34.986667-88.533333 58.389333 0 31.328 61.653333 58.272 149.92 70.101333-15.84-27.221333-50.293333-91.04-61.386667-128.490666z" fill="#E79E11" p-id="13928"></path><path d="M216.213333 435.893333c37.152-28.053333 127.157333-47.829333 232.298667-47.829333 105.130667 0 195.136 19.786667 232.298667 47.829333-37.162667 28.053333-127.168 47.829333-232.298667 47.829334-105.141333 0-195.146667-19.786667-232.309333-47.829334z" fill="#4F2201" p-id="13929"></path><path d="M469.994667 426.666667a10.666667 10.666667 0 0 1 10.666666-10.666667c43.893333 0 101.717333 10.88 125.066667 16.277333a10.666667 10.666667 0 0 1-4.8 20.778667C578.058667 447.786667 522.101333 437.333333 480.661333 437.333333a10.666667 10.666667 0 0 1-10.666666-10.666666z" fill="#B75209" p-id="13930"></path><path d="M499.328 469.333333a10.666667 10.666667 0 0 1 10.666667 10.666667v106.666667a10.666667 10.666667 0 0 1-21.333334 0V480a10.666667 10.666667 0 0 1 10.666667-10.666667z" fill="#49580C" p-id="13931"></path><path d="M499.328 490.666667a10.666667 10.666667 0 0 1 10.666667 10.666666v21.333334a10.666667 10.666667 0 0 1-21.333334 0v-21.333334a10.666667 10.666667 0 0 1 10.666667-10.666666z" fill="#667A12" p-id="13932"></path><path d="M432.661333 641.717333L499.445333 586.666667l61.226667 55.050666V757.333333s-38.666667 10.666667-64 10.666667c-25.344 0-64-10.666667-64-10.666667V641.717333z" fill="#4BEA31" p-id="13933"></path><path d="M492.661333 578.432a10.666667 10.666667 0 0 1 13.92 0.309333l61.216 55.04a10.666667 10.666667 0 0 1 3.530667 7.936V757.333333a10.666667 10.666667 0 0 1-7.829333 10.282667L560.661333 757.333333V641.717333L499.445333 586.666667l-66.773333 55.050666V757.333333l-2.848 10.282667a10.666667 10.666667 0 0 1-7.829333-10.282667V641.717333a10.666667 10.666667 0 0 1 3.882666-8.224l66.773334-55.061333zM432.661333 757.333333l-2.837333 10.282667h0.021333l0.117334 0.042667 0.362666 0.096a274.666667 274.666667 0 0 0 6.197334 1.6c4.128 1.024 9.888 2.389333 16.469333 3.754666 12.96 2.688 29.845333 5.557333 43.669333 5.557334 13.824 0 30.72-2.869333 43.669334-5.546667a439.786667 439.786667 0 0 0 22.677333-5.365333l0.352-0.106667 0.128-0.032h0.010667L560.661333 757.333333s-38.656 10.666667-64 10.666667c-25.333333 0-64-10.666667-64-10.666667z" fill="#1F7810" p-id="13934"></path><path d="M516.661333 638.666667c-60.266667 21.333333-65.994667 72-48.661333 84.330666 17.333333 12.330667 36.32 4.768 46.666667-19.669333 7.328-17.322667 4.661333-42.325333 1.994666-64.661333z" fill="#34C71C" p-id="13935"></path><path d="M440.426667 77.152a16 16 0 0 1 22.08 4.938667l-13.504 8.576 13.514666-8.565334v0.010667l0.021334 0.021333 0.032 0.053334 0.074666 0.117333 0.192 0.32 0.554667 0.949333c0.426667 0.768 1.002667 1.813333 1.653333 3.125334 1.301333 2.624 2.954667 6.314667 4.576 10.986666 3.232 9.333333 6.378667 22.624 6.378667 39.04 0 20.821333-7.338667 32.277333-12.896 40.949334l-0.512 0.810666c-2.613333 4.085333-4.192 6.773333-5.248 9.952-0.992 2.976-1.749333 7.114667-1.237333 13.696 0.789333 10.325333 2.442667 15.776 3.818666 18.784 1.226667 2.709333 2.549333 4.213333 4.853334 6.538667l0.682666 0.682667c2.485333 2.464 6.709333 6.656 9.781334 12.928 3.413333 6.976 4.928 15.253333 5.013333 25.76 0.064 11.008-1.706667 19.754667-5.184 27.157333-3.36 7.136-7.872 11.978667-10.88 15.221333l-0.181333 0.192c-3.2 3.434667-4.608 5.045333-5.706667 7.264-0.981333 1.994667-2.154667 5.525333-2.154667 12.544 0 7.552 2.432 13.44 6.389334 22.389334l0.277333 0.629333c3.786667 8.533333 8.853333 19.968 8.853333 34.784 0 13.386667-1.994667 23.744-4.16 31.04-1.088 3.648-2.208 6.506667-3.136 8.586667a47.466667 47.466667 0 0 1-1.642666 3.338666l-0.170667 0.309334-0.074667 0.106666-0.032 0.064-0.021333 0.042667-13.76-8.16 13.76 8.170667a16 16 0 0 1-27.658667-16.106667c0.042667-0.085333 0.181333-0.352 0.373334-0.789333a38.826667 38.826667 0 0 0 1.685333-4.672c1.322667-4.48 2.837333-11.765333 2.837333-21.930667 0-7.616-2.442667-13.546667-6.4-22.464l-0.298666-0.682667c-3.765333-8.512-8.821333-19.914667-8.821334-34.666666 0-10.805333 1.866667-19.370667 5.44-26.656 3.306667-6.698667 7.68-11.392 10.56-14.474667l0.426667-0.469333c3.050667-3.264 4.458667-4.949333 5.536-7.232 1.002667-2.133333 2.186667-5.930667 2.133333-13.312-0.053333-7.701333-1.173333-10.741333-1.749333-11.914667-0.618667-1.269333-1.194667-1.888-4.426667-5.141333-3.253333-3.274667-7.68-7.957333-11.264-15.786667-3.434667-7.530667-5.642667-16.970667-6.613333-29.632-0.789333-10.314667 0.298667-18.773333 2.784-26.24 2.421333-7.285333 5.973333-12.885333 8.64-17.077333l0.490667-0.768c4.704-7.338667 7.893333-12.32 7.893333-23.754667 0-12.309333-2.346667-22.048-4.618667-28.565333a62.101333 62.101333 0 0 0-2.986666-7.221334 32.885333 32.885333 0 0 0-0.970667-1.824 16 16 0 0 1 5.013333-21.973333z" fill="#BEDAFD" p-id="13936"></path><path d="M368.373333 113.834667a10.666667 10.666667 0 0 0-14.869333-2.538667l6.165333 8.704c-6.165333-8.704-6.176-8.704-6.186666-8.704v0.010667l-0.010667 0.010666-0.042667 0.021334-0.096 0.074666-0.266666 0.202667a57.717333 57.717333 0 0 0-3.626667 2.986667c-2.218667 1.994667-5.152 4.906667-8.085333 8.650666-5.824 7.413333-12.202667 18.816-12.202667 33.28 0 16.394667 7.850667 25.493333 13.312 31.818667l0.928 1.066667c2.752 3.232 4.32 5.322667 5.248 7.626666 0.810667 2.005333 1.386667 4.853333 0.533333 9.674667-1.077333 6.026667-2.741333 9.610667-4.352 12.074667-1.621333 2.474667-3.402667 4.213333-6.005333 6.752l-0.501333 0.501333c-2.752 2.688-6.410667 6.336-9.141334 11.776-2.762667 5.514667-4.192 12.053333-4.266666 20.373333-0.085333 8.789333 1.749333 15.701333 5.184 21.408 3.2 5.333333 7.445333 8.896 10.378666 11.349334l0.192 0.16c3.232 2.72 4.928 4.213333 6.186667 6.197333 1.034667 1.664 2.154667 4.352 2.154667 9.642667 0 5.674667-2.346667 10.186667-6.378667 17.301333l-0.32 0.565333c-3.722667 6.56-8.821333 15.552-8.821333 27.306667 0 12.394667 5.269333 21.685333 10.218666 27.658667a49.034667 49.034667 0 0 0 9.216 8.533333l0.768 0.512 0.256 0.170667 0.106667 0.053333 0.032 0.032h0.010667l0.010666 0.010667 5.258667-8.586667-5.248 8.597333a10.666667 10.666667 0 0 0 11.2-18.165333l-0.224-0.149333a27.626667 27.626667 0 0 1-4.970667-4.650667c-2.805333-3.370667-5.301333-8-5.301333-14.016 0-5.717333 2.346667-10.261333 6.378667-17.365333l0.341333-0.597334c3.712-6.538667 8.8-15.52 8.8-27.210666 0-8.650667-1.930667-15.424-5.44-21.002667-3.146667-4.992-7.253333-8.426667-10.08-10.805333l-0.426667-0.362667c-3.125333-2.624-4.8-4.16-6.026666-6.186667-1.056-1.749333-2.176-4.629333-2.133334-10.208 0.053333-5.930667 1.056-9.077333 2.026667-11.008 1.002667-2.005333 2.378667-3.541333 4.970667-6.08l0.672-0.661333c2.442667-2.368 5.824-5.653333 8.778666-10.176 3.36-5.130667 5.973333-11.477333 7.488-20 1.482667-8.288 0.746667-15.253333-1.738666-21.386667-2.346667-5.856-6.037333-10.261333-8.821334-13.514666l-0.576-0.672c-5.301333-6.186667-8.544-9.973333-8.544-18.368 0-8 3.541333-14.858667 7.648-20.096a47.402667 47.402667 0 0 1 7.690667-7.712l0.053333-0.042667a10.666667 10.666667 0 0 0 2.496-14.837333zM559.861333 145.386667a10.666667 10.666667 0 0 0-18.389333-10.794667l9.066667 5.333333-9.066667-5.333333-0.021333 0.032-0.021334 0.032-0.053333 0.106667-0.181333 0.32a87.381333 87.381333 0 0 0-2.677334 5.12c-1.653333 3.381333-3.818667 8.181333-5.866666 13.92-4 11.274667-7.914667 27.093333-5.898667 43.2 1.834667 14.688 9.173333 26.378667 15.018667 35.701333l1.6 2.538667c6.4 10.336 10.474667 18.176 9.973333 27.882666-0.469333 9.066667-4.821333 16.106667-11.2 25.653334l-0.682667 1.002666c-5.898667 8.821333-13.429333 20.053333-14.752 34.954667-1.365333 15.349333 3.978667 29.194667 9.066667 38.634667a96.928 96.928 0 0 0 9.813333 14.752c0.32 0.394667 0.565333 0.693333 0.768 0.917333l0.234667 0.277333 0.074667 0.085334 0.021333 0.032 0.021333 0.010666 7.957334-7.104-7.957334 7.114667a10.666667 10.666667 0 0 0 15.904-14.218667l-0.074666-0.096a58.656 58.656 0 0 1-2.314667-2.933333 75.445333 75.445333 0 0 1-5.653333-8.949333c-4.138667-7.68-7.466667-17.173333-6.613334-26.634667 0.821333-9.205333 5.44-16.32 11.914667-25.994667l0.213333-0.309333c6.058667-9.056 13.76-20.586667 14.56-36.085333 0.885333-16.970667-6.72-29.877333-13.152-40.245334l-1.258666-2.016c-6.229333-9.994667-11.093333-17.813333-12.32-27.626666-1.418667-11.349333 1.333333-23.52 4.842666-33.386667a114.005333 114.005333 0 0 1 6.570667-14.922667l0.426667-0.778666 0.106666-0.170667v-0.010667z" fill="#A2C1E7" p-id="13937"></path></svg>